# xmcd CD database file
#
# Track frame offsets:
#	150
#	16275
#	34901
#	41693
#	56616
#	73449
#	98107
#	132277
#
# Disc length: 2219 seconds
#
# Revision: 0
# Processed by: cddbd v1.5.1PL0 Copyright (c) Steve Scherf et al.
# Submitted via: CDex 1.60beta1
#
DISCID=7008a908
DTITLE=KEYBOARD☆SOFT - harmony ハリーポッターイメージアルバム
DYEAR=1900
DGENRE=未分類 (日本)
TTITLE0=Hogwarts Express
TTITLE1=七色の夢
TTITLE2=A day of summer vacation
TTITLE3=A moonlight night flight
TTITLE4=ツ・バ・サ
TTITLE5=守歌
TTITLE6=たそがれ色
TTITLE7=データトラック
EXTD=
EXTT0=
EXTT1=
EXTT2=
EXTT3=
EXTT4=
EXTT5=
EXTT6=
EXTT7=
PLAYORDER=
